<?xml version="1.0" encoding="UTF-8" standalone="no"?>
<!-- Created with Inkscape (http://www.inkscape.org/) -->

<svg
   xmlns:dc="http://purl.org/dc/elements/1.1/"
   xmlns:cc="http://creativecommons.org/ns#"
   xmlns:rdf="http://www.w3.org/1999/02/22-rdf-syntax-ns#"
   xmlns:svg="http://www.w3.org/2000/svg"
   xmlns="http://www.w3.org/2000/svg"
   xmlns:sodipodi="http://sodipodi.sourceforge.net/DTD/sodipodi-0.dtd"
   xmlns:inkscape="http://www.inkscape.org/namespaces/inkscape"
   width="210mm"
   height="297mm"
   viewBox="0 0 744.09448819 1052.3622047"
   id="svg5194"
   version="1.1"
   inkscape:version="0.91 r13725"
   sodipodi:docname="KIDSCANCODE.svg">
  <defs
     id="defs5196" />
  <sodipodi:namedview
     id="base"
     pagecolor="#ffffff"
     bordercolor="#666666"
     borderopacity="1.0"
     inkscape:pageopacity="0.0"
     inkscape:pageshadow="2"
     inkscape:zoom="0.7"
     inkscape:cx="-137.85714"
     inkscape:cy="748.57143"
     inkscape:document-units="px"
     inkscape:current-layer="layer1"
     showgrid="false"
     inkscape:window-width="1920"
     inkscape:window-height="983"
     inkscape:window-x="0"
     inkscape:window-y="27"
     inkscape:window-maximized="1" />
  <metadata
     id="metadata5199">
    <rdf:RDF>
      <cc:Work
         rdf:about="">
        <dc:format>image/svg+xml</dc:format>
        <dc:type
           rdf:resource="http://purl.org/dc/dcmitype/StillImage" />
        <dc:title></dc:title>
      </cc:Work>
    </rdf:RDF>
  </metadata>
  <g
     inkscape:label="Layer 1"
     inkscape:groupmode="layer"
     id="layer1">
    <g
       style="font-style:normal;font-weight:normal;font-size:40px;line-height:125%;font-family:sans-serif;letter-spacing:0px;word-spacing:0px;fill:#000000;fill-opacity:1;stroke:none;stroke-width:1px;stroke-linecap:butt;stroke-linejoin:miter;stroke-opacity:1"
       id="text5070">
      <path
         d="m 66.570335,34.243656 12.24,-12.78 9.72,0 -17.16,17.52 18.3,21.42 -9.18,0 -13.86,-16.5 q -0.06,0.06 -0.06,-0.66 0,-0.78 0,-1.86 0,-1.08 0,-2.34 0,-1.32 0,-2.4 0,-1.08 0,-1.74 0,-0.72 0,-0.66 z m -3.12,-12.78 -7.14,0 0,38.94 7.14,0 0,-13.26 0,-9.66 0,-16.02 z"
         style="font-style:normal;font-variant:normal;font-weight:normal;font-stretch:normal;font-size:60px;font-family:Karla;-inkscape-font-specification:Karla"
         id="path5829" />
    </g>
    <g
       style="font-style:normal;font-weight:normal;font-size:40px;line-height:125%;font-family:sans-serif;letter-spacing:0px;word-spacing:0px;fill:#000000;fill-opacity:1;stroke:none;stroke-width:1px;stroke-linecap:butt;stroke-linejoin:miter;stroke-opacity:1"
       id="text5070-4">
      <path
         d="m 127.26626,21.463656 7.08,0 0,38.94 -7.08,0 0,-38.94 z"
         style="font-style:normal;font-variant:normal;font-weight:normal;font-stretch:normal;font-size:60px;font-family:Karla;-inkscape-font-specification:Karla"
         id="path5832" />
    </g>
    <g
       style="font-style:normal;font-weight:normal;font-size:40px;line-height:125%;font-family:sans-serif;letter-spacing:0px;word-spacing:0px;fill:#000000;fill-opacity:1;stroke:none;stroke-width:1px;stroke-linecap:butt;stroke-linejoin:miter;stroke-opacity:1"
       id="text5070-1">
      <path
         d="m 182.14221,21.463656 2.88,0 q 8.88,0 14.34,5.28 5.52,5.28 5.52,14.22 0,8.88 -5.52,14.16 -5.46,5.28 -14.34,5.28 l -12.66,0 0,-38.94 7.14,0 0,32.52 5.52,0 q 5.52,0 8.94,-3.72 3.24,-3.6 3.24,-9.3 0,-5.82 -3.24,-9.42 -3.36,-3.66 -8.94,-3.66 l -2.88,0.06 0,-6.48 z m -2.64,32.52 2.34,0 0,6.42 -2.34,0 0,-6.42 z"
         style="font-style:normal;font-variant:normal;font-weight:normal;font-stretch:normal;font-size:60px;font-family:Karla;-inkscape-font-specification:Karla"
         id="path5835" />
    </g>
    <g
       style="font-style:normal;font-weight:normal;font-size:40px;line-height:125%;font-family:sans-serif;letter-spacing:0px;word-spacing:0px;fill:#000000;fill-opacity:1;stroke:none;stroke-width:1px;stroke-linecap:butt;stroke-linejoin:miter;stroke-opacity:1"
       id="text5070-8">
      <path
         d="m 247.21813,20.653627 q 5.76,0.24 9.18,3.18 3.42,2.88 3.96,8.34 l -7.02,0 q -0.9,-4.62 -6.12,-5.04 l 0,-6.48 z m -2.4,6.48 q -2.16,0.24 -3.66,1.32 -1.5,1.08 -1.5,2.82 0,1.74 1.08,2.76 1.14,0.96 3.48,1.8 l 8.46,3.3 q 4.32,1.68 6.66,4.26 2.34,2.52 2.34,6.36 0,5.28 -3.84,8.28 -3.84,3 -10.62,3.18 l 0,-6.54 q 2.4,0 4.5,-1.2 2.1,-1.26 2.1,-3.3 0,-2.1 -1.14,-3.18 -1.14,-1.14 -3.72,-2.1 l -7.74,-3.06 q -4.5,-1.74 -6.9,-4.08 -2.4,-2.34 -2.4,-6.48 0,-4.86 3.78,-7.68 3.84,-2.94 9.12,-2.94 l 0,6.48 z m 0,34.02 q -5.4,-0.36 -8.88,-3.12 -4.5,-3.48 -4.74,-9.84 l 7.02,0 q 0,4.8 4.98,6.06 0.72,0.18 1.62,0.3 l 0,6.6 z"
         style="font-style:normal;font-variant:normal;font-weight:normal;font-stretch:normal;font-size:60px;font-family:Karla;-inkscape-font-specification:Karla"
         id="path5838" />
    </g>
    <g
       style="font-style:normal;font-weight:normal;font-size:40px;line-height:125%;font-family:sans-serif;letter-spacing:0px;word-spacing:0px;fill:#000000;fill-opacity:1;stroke:none;stroke-width:1px;stroke-linecap:butt;stroke-linejoin:miter;stroke-opacity:1"
       id="text5070-3">
      <path
         d="m 304.73407,20.653627 q 3.6,0 6.24,0.9 2.64,0.84 4.56,2.4 3.78,3.06 4.92,8.58 l -7.56,1.38 q -0.96,-3.06 -3,-4.92 -1.98,-1.92 -4.98,-1.92 -4.08,0 -6.6,3.42 -2.7,3.72 -2.7,10.32 0,6.54 2.4,10.26 2.4,3.66 6.54,3.66 4.14,0 6.24,-1.98 2.1,-2.04 2.1,-5.22 l 7.62,0 q 0,6.54 -4.2,10.14 -4.14,3.54 -11.4,3.54 -7.74,0 -12.3,-5.4 -4.62,-5.52 -4.62,-15 0,-9.6 4.74,-15 4.56,-5.16 12,-5.16 z"
         style="font-style:normal;font-variant:normal;font-weight:normal;font-stretch:normal;font-size:60px;font-family:Karla;-inkscape-font-specification:Karla"
         id="path5841" />
    </g>
    <g
       style="font-style:normal;font-weight:normal;font-size:40px;line-height:125%;font-family:sans-serif;letter-spacing:0px;word-spacing:0px;fill:#000000;fill-opacity:1;stroke:none;stroke-width:1px;stroke-linecap:butt;stroke-linejoin:miter;stroke-opacity:1"
       id="text5070-80">
      <path
         d="m 359.01004,46.603656 8.58,0.06 -5.4,-16.74 -5.52,16.74 q -0.42,1.2 -0.78,2.22 -0.3,0.96 -0.54,1.62 l -0.48,1.44 -2.76,8.46 -7.5,0 13.26,-38.94 8.94,0 12.72,38.94 -7.5,0 -2.7,-8.4 -12.06,0 1.74,-5.4 z"
         style="font-style:normal;font-variant:normal;font-weight:normal;font-stretch:normal;font-size:60px;font-family:Karla;-inkscape-font-specification:Karla"
         id="path5844" />
    </g>
    <g
       style="font-style:normal;font-weight:normal;font-size:40px;line-height:125%;font-family:sans-serif;letter-spacing:0px;word-spacing:0px;fill:#000000;fill-opacity:1;stroke:none;stroke-width:1px;stroke-linecap:butt;stroke-linejoin:miter;stroke-opacity:1"
       id="text5070-0">
      <path
         d="m 411.63597,21.463656 17.16,27.6 0,-27.6 7.08,0 0,38.94 -7.2,0 -17.7,-28.56 0,28.56 -7.08,0 0,-38.94 7.74,0 z"
         style="font-style:normal;font-variant:normal;font-weight:normal;font-stretch:normal;font-size:60px;font-family:Karla;-inkscape-font-specification:Karla"
         id="path5847" />
    </g>
    <g
       style="font-style:normal;font-weight:normal;font-size:40px;line-height:125%;font-family:sans-serif;letter-spacing:0px;word-spacing:0px;fill:#000000;fill-opacity:1;stroke:none;stroke-width:1px;stroke-linecap:butt;stroke-linejoin:miter;stroke-opacity:1"
       id="text5070-11">
      <path
         d="m 478.18189,20.653627 q 3.6,0 6.24,0.9 2.64,0.84 4.56,2.4 3.78,3.06 4.92,8.58 l -7.56,1.38 q -0.96,-3.06 -3,-4.92 -1.98,-1.92 -4.98,-1.92 -4.08,0 -6.6,3.42 -2.7,3.72 -2.7,10.32 0,6.54 2.4,10.26 2.4,3.66 6.54,3.66 4.14,0 6.24,-1.98 2.1,-2.04 2.1,-5.22 l 7.62,0 q 0,6.54 -4.2,10.14 -4.14,3.54 -11.4,3.54 -7.74,0 -12.3,-5.4 -4.62,-5.52 -4.62,-15 0,-9.6 4.74,-15 4.56,-5.16 12,-5.16 z"
         style="font-style:normal;font-variant:normal;font-weight:normal;font-stretch:normal;font-size:60px;font-family:Karla;-inkscape-font-specification:Karla"
         id="path5850" />
    </g>
    <g
       style="font-style:normal;font-weight:normal;font-size:40px;line-height:125%;font-family:sans-serif;letter-spacing:0px;word-spacing:0px;fill:#000000;fill-opacity:1;stroke:none;stroke-width:1px;stroke-linecap:butt;stroke-linejoin:miter;stroke-opacity:1"
       id="text5070-85">
      <path
         d="m 534.46789,61.213627 q -7.32,-0.3 -11.7,-5.16 -4.92,-5.34 -4.92,-15.18 0,-9.96 4.92,-15.24 4.26,-4.62 11.7,-4.98 l 0,3.18 0,3.18 -0.42,0 q -3.24,0 -6.06,3.66 -2.82,3.6 -2.82,10.32 0,6.66 2.82,10.26 2.82,3.54 6.48,3.54 -0.06,0.06 -0.06,1.08 0.06,0.96 0.06,2.16 l 0,3.18 z m 2.7,-6.54 q 3.6,-0.48 6.12,-3.72 2.58,-3.3 2.58,-9.96 0,-6.72 -2.58,-10.02 -2.58,-3.36 -6.12,-3.78 l 0,-3.24 q 0,-1.2 -0.06,-2.22 0,-1.02 0.06,-1.02 2.88,0.18 5.82,1.38 2.94,1.14 5.28,3.66 4.92,5.28 4.92,15.12 0,9.9 -4.92,15.3 -4.2,4.5 -11.04,4.98 l -0.06,-6.48 z"
         style="font-style:normal;font-variant:normal;font-weight:normal;font-stretch:normal;font-size:60px;font-family:Karla;-inkscape-font-specification:Karla"
         id="path5853" />
    </g>
    <g
       style="font-style:normal;font-weight:normal;font-size:40px;line-height:125%;font-family:sans-serif;letter-spacing:0px;word-spacing:0px;fill:#000000;fill-opacity:1;stroke:none;stroke-width:1px;stroke-linecap:butt;stroke-linejoin:miter;stroke-opacity:1"
       id="text5070-46">
      <path
         d="m 586.85371,21.463656 2.88,0 q 8.88,0 14.34,5.28 5.52,5.28 5.52,14.22 0,8.88 -5.52,14.16 -5.46,5.28 -14.34,5.28 l -12.66,0 0,-38.94 7.14,0 0,32.52 5.52,0 q 5.52,0 8.94,-3.72 3.24,-3.6 3.24,-9.3 0,-5.82 -3.24,-9.42 -3.36,-3.66 -8.94,-3.66 l -2.88,0.06 0,-6.48 z m -2.64,32.52 2.34,0 0,6.42 -2.34,0 0,-6.42 z"
         style="font-style:normal;font-variant:normal;font-weight:normal;font-stretch:normal;font-size:60px;font-family:Karla;-inkscape-font-specification:Karla"
         id="path5856" />
    </g>
    <g
       style="font-style:normal;font-weight:normal;font-size:40px;line-height:125%;font-family:sans-serif;letter-spacing:0px;word-spacing:0px;fill:#000000;fill-opacity:1;stroke:none;stroke-width:1px;stroke-linecap:butt;stroke-linejoin:miter;stroke-opacity:1"
       id="text5070-86">
      <path
         d="m 648.08966,27.583656 0,-6.12 15.6,0 0,6.12 -15.6,0 z m 0,32.82 0,-6.18 15.6,0 0,6.18 -15.6,0 z m -2.4,0 -7.08,0 0,-38.94 7.02,0 0.06,16.38 16.86,0 0,6.12 -16.86,0 0,16.44 z"
         style="font-style:normal;font-variant:normal;font-weight:normal;font-stretch:normal;font-size:60px;font-family:Karla;-inkscape-font-specification:Karla"
         id="path5859" />
    </g>
  </g>
</svg>
